HIERARCHY
ROOT Hips
{
	OFFSET -3.958830 18.904000 13.208200
	CHANNELS 6 Xposition Yposition Zposition Zrotation Yrotation Xrotation 
	JOINT LHipJoint
	{
		OFFSET 0.000000 0.000000 0.000000
		CHANNELS 3 Zrotation Yrotation Xrotation
		JOINT LeftUpLeg
		{
			OFFSET 1.800000 -1.400000 0.085000
			CHANNELS 3 Zrotation Yrotation Xrotation
			JOINT LeftLeg
			{
				OFFSET 2.215000 -6.000000 0.000000
				CHANNELS 3 Zrotation Yrotation Xrotation
				JOINT LeftFoot
				{
					OFFSET 2.500000 -6.900000 0.000000
					CHANNELS 3 Zrotation Yrotation Xrotation
					JOINT LeftToeBase
					{
						OFFSET 0.200000 -0.500000 1.950000
						CHANNELS 3 Zrotation Yrotation Xrotation
						End Site
						{
							OFFSET 0.000000 0.000000 0.000000
						}
					}
				}
			}
		}
	}
	JOINT RHipJoint
	{
		OFFSET 0.000000 0.000000 0.000000
		CHANNELS 3 Zrotation Yrotation Xrotation
		JOINT RightUpLeg
		{
			OFFSET -1.800000 -1.400000 0.085000
			CHANNELS 3 Zrotation Yrotation Xrotation
			JOINT RightLeg
			{
				OFFSET -2.215000 -6.000000 0.000000
				CHANNELS 3 Zrotation Yrotation Xrotation
				JOINT RightFoot
				{
					OFFSET -2.500000 -6.900000 0.000000
					CHANNELS 3 Zrotation Yrotation Xrotation
					JOINT RightToeBase
					{
						OFFSET -0.200000 -0.500000 1.950000
						CHANNELS 3 Zrotation Yrotation Xrotation
						End Site
						{
							OFFSET 0.000000 0.000000 0.000000
						}
					}
				}
			}
		}
	}
	JOINT LowerBack
	{
		OFFSET 0.000000 0.000000 0.000000
		CHANNELS 3 Zrotation Yrotation Xrotation
		JOINT Spine
		{
			OFFSET -0.087000 1.940000 -0.288900
			CHANNELS 3 Zrotation Yrotation Xrotation
			JOINT Spine1
			{
				OFFSET 0.000000 1.950000 0.060000
				CHANNELS 3 Zrotation Yrotation Xrotation
				JOINT Neck
				{
					OFFSET 0.000000 0.000000 0.000000
					CHANNELS 3 Zrotation Yrotation Xrotation
					JOINT Neck1
					{
						OFFSET 0.000000 1.600000 0.340000
						CHANNELS 3 Zrotation Yrotation Xrotation
						JOINT Head
						{
							OFFSET 0.000000 1.667000 -0.240000
							CHANNELS 3 Zrotation Yrotation Xrotation
							End Site
							{
								OFFSET 0.000000 0.000000 0.000000
							}
						}
					}
				}
				JOINT LeftShoulder
				{
					OFFSET 0.000000 0.000000 0.000000
					CHANNELS 3 Zrotation Yrotation Xrotation
					JOINT LeftArm
					{
						OFFSET 2.700000 1.550000 -0.730000
						CHANNELS 3 Zrotation Yrotation Xrotation
						JOINT LeftForeArm
						{
							OFFSET 5.450000 0.000000 0.000000
							CHANNELS 3 Zrotation Yrotation Xrotation
							JOINT LeftHand
							{
								OFFSET 3.450000 0.000000 0.000000
								CHANNELS 3 Zrotation Yrotation Xrotation
								JOINT LeftHandIndex1
								{
									OFFSET 0.750000 0.000000 0.000000
									CHANNELS 3 Zrotation Yrotation Xrotation
									End Site
									{
										OFFSET 0.000000 0.000000 0.000000
									}
								}
							}
						}
					}
				}
				JOINT RightShoulder
				{
					OFFSET 0.000000 0.000000 0.000000
					CHANNELS 3 Zrotation Yrotation Xrotation
					JOINT RightArm
					{
						OFFSET -2.700000 1.550000 -0.730000
						CHANNELS 3 Zrotation Yrotation Xrotation
						JOINT RightForeArm
						{
							OFFSET -5.450000 0.000000 0.000000
							CHANNELS 3 Zrotation Yrotation Xrotation
							JOINT RightHand
							{
								OFFSET -3.450000 0.000000 0.000000
								CHANNELS 3 Zrotation Yrotation Xrotation
								JOINT RightHandIndex1
								{
									OFFSET -0.750000 0.000000 0.000000
									CHANNELS 3 Zrotation Yrotation Xrotation
									End Site
									{
										OFFSET 0.000000 0.000000 0.000000
									}
								}
							}
						}
					}
				}
			}
		}
	}
}
MOTION
Frames: 13
Frame Time: 0.016667
-0.304870 17.584020 0.002750 -3.030753 -3.236422 5.499271 -14.851150 12.645213 2.851778 4.200433 -3.110579 -20.513808 -8.122623 7.190970 20.515156 -0.105888 4.591571 3.012783 -0.248490 -0.508020 0.095960 18.651613 -11.326447 2.612380 -0.194423 1.904332 -17.736373 2.004534 -4.027086 17.395848 0.374050 -3.400249 3.081742 -0.189430 0.594020 0.266470 -4.549463 0.171201 -6.528263 14.392513 1.009036 1.875443 -6.331447 0.762647 1.660861 3.555767 -0.260025 -3.457965 -0.192295 1.991882 25.732134 -4.925000 5.549880 10.128780 -25.454479 3.610047 -1.952964 -55.242077 -4.823331 -4.365324 -0.879151 -13.118003 -1.038355 -4.372735 3.083769 -0.243260 0.532530 -0.435720 -0.081410 17.841725 -4.175235 0.431001 59.773169 0.555308 -6.842313 9.454366 14.165152 -1.059510 2.826459 -1.534037 -0.228840 -0.166630 0.110120 0.044380 
-0.303370 17.580330 0.001000 -3.074410 -3.149381 5.318430 -14.847892 12.661495 2.862318 4.230422 -3.120544 -20.509509 -8.113390 7.226991 20.777392 -0.097201 4.570418 2.989135 -0.203650 -0.445380 0.133870 18.649500 -11.333574 2.612410 -0.178283 1.891595 -17.697888 1.995024 -4.069445 17.750166 0.339998 -3.396250 3.069838 -0.171820 0.530110 0.262110 -4.550886 0.150368 -6.554501 14.423717 1.034488 2.162512 -6.196626 0.815648 1.755374 3.562922 -0.160671 -3.457857 -0.150560 1.778699 26.566829 -5.109800 5.600720 9.266560 -25.258022 3.723344 -2.021360 -55.486796 -5.134783 -4.365494 -1.087851 -13.522099 -1.024184 -4.324963 3.086788 -0.220400 0.491660 -0.389650 -0.087250 17.629207 -4.360355 0.416215 59.888836 0.485165 -6.991024 9.506491 14.500077 -1.030303 2.831740 -1.526079 -0.198640 -0.181580 0.082870 0.036830 
-0.296870 17.579430 -0.001480 -3.300830 -3.066260 4.938762 -14.831187 12.695683 2.870831 4.479483 -3.081658 -20.254405 -8.183279 7.321939 21.098468 -0.110243 4.578025 2.942129 -0.145980 -0.387950 0.225450 18.652286 -11.356350 2.629368 0.003591 1.906602 -17.602437 1.925321 -4.140663 18.442966 0.284265 -3.375093 3.048968 -0.154860 0.419550 0.242920 -4.576522 0.140172 -6.620544 14.738805 1.137389 2.774017 -6.061894 1.001935 1.741985 3.681177 0.061977 -3.492248 -0.031501 1.259016 28.448480 -5.639730 5.682810 7.696420 -24.990694 3.963097 -2.179297 -55.845458 -5.628977 -4.333383 -1.476806 -14.279079 -1.016569 -4.244773 3.041174 -0.144730 0.412700 -0.309660 -0.115710 17.088186 -4.740495 0.456536 60.012352 0.369485 -7.165268 9.938337 14.902197 -0.905805 2.844546 -1.478024 -0.183870 -0.185170 0.047190 -0.002030 
-0.290580 17.572200 -0.003820 -3.423837 -3.126481 4.424135 -14.820974 12.741871 2.885737 4.681026 -3.063206 -19.970454 -8.320657 7.484862 21.628106 -0.154392 4.668019 2.878003 -0.105040 -0.357740 0.291340 18.651353 -11.368535 2.628829 0.180093 1.910401 -17.429880 1.516673 -4.155155 19.272422 0.232768 -3.369712 3.029595 -0.138560 0.350640 0.221840 -4.586117 0.075637 -6.673205 14.916423 1.155766 3.398196 -6.026599 1.135002 2.050981 3.722897 0.078337 -3.553775 -0.278332 1.339666 30.474012 -5.831860 5.902760 6.009890 -24.520781 4.100085 -2.276429 -56.409789 -6.159026 -4.424068 -1.364473 -15.624271 -1.128120 -4.182615 2.978311 -0.050380 0.349250 -0.250810 -0.137530 16.514465 -4.936846 0.489736 60.270435 0.503946 -7.322267 10.368380 15.232561 -0.781411 2.831059 -1.414986 -0.200940 -0.156860 0.040380 -0.044570 
-0.285720 17.562130 -0.007060 -3.562917 -3.202417 3.943615 -14.816235 12.779530 2.900519 4.948527 -3.062139 -19.805671 -8.472933 7.660549 22.193226 -0.164668 4.768810 2.812868 -0.054930 -0.321160 0.364260 18.648175 -11.371356 2.627609 0.383322 1.976918 -17.455385 1.045543 -4.148582 20.323930 0.174896 -3.382547 2.986971 -0.125390 0.284380 0.231360 -4.585048 0.011562 -6.715042 14.961865 1.187678 3.943672 -5.916630 1.259732 2.421347 3.704206 0.018044 -3.588559 -0.654195 1.399879 32.291815 -6.052920 6.068450 4.575010 -23.850733 4.420507 -2.395976 -57.080642 -6.826830 -4.472664 -1.295464 -17.119039 -1.231583 -4.128008 2.951328 0.020480 0.293250 -0.183620 -0.150260 15.872012 -5.245670 0.472443 60.608628 0.667521 -7.467939 10.831860 15.626885 -0.665229 2.834314 -1.382155 -0.192460 -0.154780 0.020200 -0.071140 
-0.280130 17.555150 -0.013920 -3.753877 -3.089792 3.255626 -14.809782 12.874012 2.907129 5.206348 -2.979833 -19.382230 -8.361461 7.740683 22.618242 -0.190981 4.803057 2.759970 -0.010580 -0.274500 0.415180 18.636960 -11.370654 2.639510 0.680202 2.087021 -17.539102 0.389411 -4.130868 21.868450 0.117593 -3.416575 2.954777 -0.110960 0.206130 0.211520 -4.574876 -0.142632 -6.789042 15.076705 1.063078 4.810122 -5.741746 1.296061 2.671380 3.588831 -0.330345 -3.803310 -1.680676 1.773713 34.904182 -6.016410 6.179610 2.914070 -23.132653 4.579573 -2.391876 -57.796047 -7.337582 -4.590930 -1.481724 -18.902882 -1.294296 -4.049160 2.908788 0.103330 0.222330 -0.119460 -0.170170 15.335458 -5.139160 0.595045 60.697491 0.797915 -7.628318 11.232920 15.888703 -0.530373 2.831396 -1.324773 -0.188690 -0.140570 0.008790 -0.100190 
-0.276280 17.551440 -0.020000 -3.760051 -2.622540 2.354163 -14.825750 13.019759 2.923948 5.376485 -2.861534 -18.547712 -8.390885 7.787655 22.597509 -0.243556 4.848494 2.719251 0.026160 -0.263190 0.487380 18.594808 -11.347652 2.646496 0.690818 2.217455 -17.610762 -0.039539 -4.227733 23.761597 0.050856 -3.488616 2.908427 -0.105990 0.142870 0.191780 -4.490927 -0.429258 -6.896247 14.703047 0.797528 6.013356 -5.428666 1.251775 2.689982 3.448859 -0.769247 -4.105327 -3.015996 2.298883 37.920276 -5.793550 6.145640 0.783750 -22.612903 4.660651 -2.390419 -58.077338 -7.697886 -4.740657 -1.868941 -20.882993 -1.352623 -3.973357 2.826295 0.221340 0.147320 -0.051280 -0.194940 15.082358 -4.860203 0.806115 60.356068 0.729989 -7.857285 12.097561 16.262750 -0.306687 2.821433 -1.233329 -0.213510 -0.095230 0.007760 -0.143460 
-0.277740 17.546890 -0.023670 -3.423416 -1.718311 1.395281 -14.879975 13.205617 2.951530 5.275880 -2.739458 -17.545534 -8.409205 7.790631 22.365431 -0.270409 4.847191 2.701764 0.056670 -0.236840 0.537960 18.513096 -11.291265 2.634868 0.268485 2.350508 -17.859077 -0.105938 -4.463323 25.964003 -0.012471 -3.625874 2.839487 -0.097370 0.086570 0.162510 -4.303076 -0.856961 -7.005714 13.502115 0.402492 7.290086 -4.756768 1.044321 2.555272 3.150895 -1.403737 -4.393657 -4.853352 3.113071 40.694664 -5.437880 6.176630 -0.980060 -22.290370 4.791273 -2.402725 -57.932531 -7.999412 -4.857297 -2.500356 -22.744217 -1.299994 -3.897314 2.768226 0.306740 0.079090 0.004420 -0.215440 15.418720 -4.451570 0.962089 59.646676 0.488452 -8.120250 12.516707 16.536932 -0.163807 2.824547 -1.156036 -0.227150 -0.057040 0.001510 -0.169600 
-0.282660 17.538020 -0.028800 -2.754504 -1.010873 0.720533 -14.963591 13.385966 2.979852 4.769560 -2.609973 -16.625441 -8.322617 7.711334 21.899335 -0.284789 4.808223 2.710125 0.056300 -0.230220 0.531240 18.411137 -11.206544 2.612756 -0.480930 2.592443 -18.672341 -0.171222 -4.723558 28.507779 -0.051184 -3.838050 2.753421 -0.095120 0.077950 0.143090 -4.044449 -1.327681 -7.076907 11.606582 0.117171 8.265781 -3.820906 0.857558 2.416277 2.648658 -2.352424 -4.618540 -7.267208 4.444377 42.358473 -4.805850 6.272770 -1.684920 -21.790726 5.183507 -2.400037 -57.850139 -8.219773 -4.916743 -3.351346 -24.765850 -1.155522 -3.859484 2.745248 0.344240 0.050270 0.021930 -0.224230 16.028798 -4.010239 1.026946 58.523237 0.370947 -8.154656 13.123713 16.580743 -0.028192 2.823447 -1.107363 -0.238040 -0.026500 0.016070 -0.171630 
-0.283660 17.531460 -0.038860 -2.384130 -0.741927 0.204315 -15.024871 13.505822 3.001044 4.543747 -2.529094 -16.090014 -8.368987 7.748700 21.806627 -0.283958 4.816848 2.693201 0.082150 -0.193700 0.549830 18.342736 -11.114628 2.612016 -0.982457 2.903885 -19.529187 -0.283747 -4.919619 30.826345 -0.101892 -4.052222 2.655602 -0.078180 0.050800 0.133850 -3.861228 -1.693279 -7.131719 10.367392 -0.061125 9.132848 -3.114551 0.772337 2.373256 2.168580 -3.406796 -4.755963 -9.852613 5.860443 43.229275 -4.590120 6.609110 -2.699170 -21.376297 5.670485 -2.464391 -57.599965 -8.530458 -4.883416 -4.480199 -26.681656 -0.900111 -3.818349 2.751304 0.369400 0.018840 0.048720 -0.230390 16.587633 -3.625375 1.024526 57.320145 0.468392 -8.001731 13.688903 16.282069 0.060985 2.832054 -1.086860 -0.231510 -0.014810 0.010230 -0.174040 
-0.287520 17.520900 -0.051450 -2.142654 -0.508873 -0.115314 -15.083601 13.609826 3.009049 4.429288 -2.466062 -15.759335 -8.388218 7.778369 21.719976 -0.258865 4.826480 2.689770 0.103930 -0.166040 0.555900 18.287149 -10.992421 2.623110 -1.260377 3.240866 -20.399518 -0.404297 -5.066387 32.918798 -0.151957 -4.263816 2.558058 -0.067910 0.043210 0.132880 -3.700616 -2.076042 -7.160233 9.326186 -0.294655 9.683431 -2.353647 0.594172 2.462847 1.538941 -4.675022 -5.073418 -12.971710 7.635679 43.397453 -3.967330 6.888820 -2.920770 -20.542378 6.031952 -2.298051 -57.887667 -8.781395 -4.853895 -5.256837 -28.351167 -0.724513 -3.777562 2.783802 0.375880 -0.005620 0.066820 -0.219480 17.004823 -3.000961 1.213255 56.199393 0.279967 -8.117790 14.246814 16.680080 0.167699 2.844397 -1.094372 -0.219690 -0.010720 -0.003210 -0.160160 
-0.286230 17.515990 -0.064730 -1.719200 -0.448484 -0.338174 -15.142359 13.707136 3.019346 3.957586 -2.468577 -15.569252 -8.100843 7.722056 21.845134 -0.281846 4.834110 2.674425 0.103120 -0.174460 0.551730 18.233567 -10.884461 2.615052 -1.863071 3.461221 -21.144479 -0.347880 -5.261611 34.449410 -0.169133 -4.449564 2.471226 -0.061240 0.040070 0.127570 -3.540902 -2.439198 -7.159081 8.214655 -0.468143 10.036680 -1.770574 0.452092 2.566121 0.978764 -5.870289 -5.408293 -15.945005 9.607499 42.951686 -3.693130 7.555880 -2.983150 -19.889018 6.179192 -2.078086 -57.838424 -8.876280 -4.848562 -5.840689 -29.783001 -0.605467 -3.762083 2.813388 0.389880 -0.015300 0.058010 -0.232990 17.471329 -2.264347 1.422054 55.214874 0.204840 -8.134310 14.341775 16.619567 0.189849 2.841098 -1.092793 -0.232170 -0.013320 0.014260 -0.169740 
-0.282560 17.513420 -0.082280 -1.538920 -0.658376 -0.356927 -15.173380 13.756995 3.022828 3.680478 -2.541019 -15.744158 -7.864940 7.725897 22.238184 -0.312980 4.884570 2.638034 0.103080 -0.192840 0.566950 18.215287 -10.783665 2.614845 -2.129102 3.680746 -21.784944 -0.464056 -5.284285 35.386923 -0.174123 -4.546247 2.396556 -0.051780 0.032660 0.127830 -3.468103 -2.703548 -7.130268 7.755982 -0.602864 10.171982 -1.404845 0.359260 2.744089 0.409746 -7.041964 -5.725775 -18.782901 11.667289 41.666828 -3.507980 8.447540 -3.195540 -19.007684 6.364780 -1.800107 -58.038786 -9.007621 -4.753755 -6.493875 -31.009788 -0.487482 -3.753099 2.851406 0.405640 -0.027750 0.049570 -0.256310 17.654438 -1.644668 1.554455 54.396998 0.402147 -7.964782 14.148361 15.993006 0.134286 2.853265 -1.094432 -0.251160 -0.021880 0.032810 -0.187220 
